<svg width="28" height="26" viewBox="0 0 28 26" fill="none" xmlns="http://www.w3.org/2000/svg">
<path d="M25.4473 2.75435C23.9628 1.19651 21.9951 0.245686 19.8995 0.0736445C17.8039 -0.0983972 15.7187 0.519683 14.0204 1.81624C12.2386 0.429055 10.0209 -0.199961 7.81387 0.0558604C5.60681 0.311682 3.57432 1.43334 2.1257 3.19495C0.677073 4.95657 -0.0800771 7.22729 0.00671527 9.54985C0.0935077 11.8724 1.0178 14.0743 2.59345 15.7121L11.2897 24.8294C12.0179 25.5796 12.9986 26 14.0204 26C15.0421 26 16.0228 25.5796 16.7511 24.8294L25.4473 15.7121C27.0823 13.9901 28 11.661 28 9.23322C28 6.80544 27.0823 4.47628 25.4473 2.75435ZM23.4728 13.6893L14.7765 22.7919C14.6776 22.8965 14.5598 22.9795 14.43 23.0362C14.3002 23.0929 14.161 23.122 14.0204 23.122C13.8797 23.122 13.7405 23.0929 13.6107 23.0362C13.4809 22.9795 13.3631 22.8965 13.2642 22.7919L4.56795 13.6453C3.46974 12.4702 2.85477 10.8917 2.85477 9.24787C2.85477 7.60402 3.46974 6.02553 4.56795 4.85046C5.68706 3.69392 7.19638 3.04542 8.76902 3.04542C10.3417 3.04542 11.851 3.69392 12.9701 4.85046C13.1003 4.98784 13.2552 5.09689 13.4258 5.17131C13.5964 5.24573 13.7795 5.28404 13.9643 5.28404C14.1492 5.28404 14.3322 5.24573 14.5029 5.17131C14.6735 5.09689 14.8284 4.98784 14.9586 4.85046C16.0777 3.69392 17.587 3.04542 19.1597 3.04542C20.7323 3.04542 22.2416 3.69392 23.3607 4.85046C24.474 6.01013 25.1092 7.58007 25.1301 9.22396C25.1511 10.8679 24.5561 12.455 23.4728 13.6453V13.6893Z" fill="#B9B6B6"/>
</svg>
