<svg width="32" height="33" viewBox="0 0 32 33" fill="none" xmlns="http://www.w3.org/2000/svg">
<path d="M19.1918 7.78072C19.1918 7.23074 19.0102 6.69312 18.67 6.23583C18.3298 5.77855 17.8463 5.42214 17.2806 5.21167C16.7149 5.0012 16.0924 4.94614 15.4919 5.05343C14.8914 5.16073 14.3397 5.42556 13.9068 5.81445C13.4738 6.20334 13.1789 6.69882 13.0595 7.23823C12.94 7.77763 13.0013 8.33674 13.2357 8.84485C13.47 9.35296 13.8668 9.78725 14.3759 10.0928C14.885 10.3983 15.4836 10.5614 16.0959 10.5614C16.9168 10.5609 17.7039 10.2677 18.2843 9.74636C18.8648 9.225 19.1911 8.51804 19.1918 7.78072ZM13.4694 7.78072C13.4694 7.31414 13.6235 6.85803 13.9121 6.47008C14.2007 6.08214 14.6109 5.77977 15.0908 5.60121C15.5707 5.42266 16.0988 5.37594 16.6083 5.46697C17.1178 5.558 17.5858 5.78268 17.9531 6.1126C18.3204 6.44252 18.5705 6.86287 18.6719 7.32048C18.7732 7.7781 18.7212 8.25243 18.5224 8.6835C18.3236 9.11456 17.987 9.483 17.5551 9.74221C17.1231 10.0014 16.6153 10.1398 16.0959 10.1398C15.3995 10.1392 14.7318 9.89051 14.2394 9.44822C13.747 9.00593 13.4701 8.40621 13.4694 7.78072Z" stroke="#B9B6B6"/>
<path d="M29.1122 15.9691C29.0887 15.784 29.4878 16.0417 22.3055 12.4541C22.1741 12.3885 22.1459 12.433 20.6249 13.0165C21.6436 11.2895 22.4346 9.3375 22.4346 7.42536C22.4346 5.72125 21.7565 4.08693 20.5496 2.88195C19.3426 1.67696 17.7056 1 15.9987 1C14.2918 1 12.6548 1.67696 11.4479 2.88195C10.2409 4.08693 9.56285 5.72125 9.56285 7.42536C9.56285 9.3375 10.3538 11.2895 11.3725 13.0165C9.82338 12.4236 9.81869 12.3908 9.69194 12.4541C2.44865 16.0698 2.91104 15.7886 2.88522 15.9691C0.859638 31.1701 0.901887 30.35 1.07558 30.4742C1.10915 30.4984 1.14855 30.5134 1.18977 30.5175C1.23099 30.5216 1.27258 30.5147 1.31029 30.4976C8.99249 26.9194 8.47377 27.1654 8.51133 27.1373C16.2874 31.1772 15.879 30.9663 15.9213 30.9827C16.0715 31.0342 15.6161 31.217 23.4861 27.1373C23.5237 27.1654 23.0613 26.9452 30.6871 30.4976C30.7249 30.5147 30.7664 30.5216 30.8077 30.5175C30.8489 30.5134 30.8883 30.4984 30.9219 30.4742C31.1002 30.3476 31.1425 31.1608 29.1122 15.9691ZM16.0011 1.47101C17.5831 1.47225 19.0999 2.10022 20.2186 3.21705C21.3373 4.33388 21.9663 5.84827 21.9675 7.42771C21.9675 12.037 16.9657 17.1196 16.0011 18.057C15.0364 17.1196 10.0346 12.037 10.0346 7.42771C10.0359 5.84827 10.6649 4.33388 11.7835 3.21705C12.9022 2.10022 14.419 1.47225 16.0011 1.47101ZM15.7663 18.4811V30.3758L8.63338 26.671L10.0041 12.9954L11.7762 13.675C12.9205 15.4221 14.2591 17.0344 15.7663 18.4811ZM1.50276 29.893L3.33822 16.1542L9.52295 13.0657C9.52295 13.1079 8.15221 26.7647 8.14987 26.7975L1.50276 29.893ZM16.2358 18.4811C17.7431 17.0344 19.0816 15.4221 20.2259 13.675L22.0004 12.9954L23.3711 26.671L16.2358 30.3758V18.4811ZM23.8523 26.7975C23.8523 26.7647 22.4815 13.0938 22.4792 13.0657L28.6756 16.1542L30.5111 29.893L23.8523 26.7975Z" stroke="#B9B6B6" stroke-width="2"/>
</svg>
