<svg width="30" height="31" viewBox="0 0 30 31" fill="none" xmlns="http://www.w3.org/2000/svg">
<path d="M21.6537 31C21.5405 31 21.4415 30.9854 21.3283 30.9561C20.8474 30.8389 20.4654 30.4727 20.3098 29.9894L16.9854 19.6634L14.2977 22.4463V26.0347C14.2977 26.4302 14.142 26.7964 13.8874 27.0747L11.1854 29.8722C10.8601 30.2091 10.4074 30.3555 9.95474 30.2823C9.50206 30.2091 9.1201 29.9161 8.92205 29.4914L6.43234 24.3357L1.45282 21.7579C1.04258 21.5528 0.759686 21.1426 0.688955 20.6885C0.618224 20.2198 0.759686 19.7513 1.08505 19.4144L3.78694 16.6167C4.05572 16.3384 4.40941 16.1921 4.79136 16.1921H8.25717L10.945 13.4092L0.971852 9.96716C0.505025 9.80605 0.151369 9.41058 0.0381988 8.91259C-0.0749712 8.4146 0.0665195 7.90196 0.420176 7.53579L4.46598 3.34678C4.81963 2.98061 5.34305 2.83417 5.82402 2.96599L17.8625 6.24686L22.6864 1.2523C24.2991 -0.417434 27.1283 -0.417434 28.741 1.2523C29.5473 2.08717 30 3.20034 30 4.38673C30 5.57312 29.5615 6.68626 28.741 7.52113L23.9171 12.5157L27.0859 24.9802C27.2132 25.4782 27.0717 26.0201 26.7181 26.3863L22.6722 30.5751C22.3893 30.8534 22.0215 31 21.6537 31ZM17.6079 15.489C17.721 15.489 17.8201 15.5037 17.9332 15.533C18.4142 15.6502 18.7962 16.0163 18.9518 16.4997L22.2761 26.8255L24.1293 24.9069L20.9605 12.4425C20.8332 11.9445 20.9747 11.4025 21.3283 11.0363L26.7322 5.4413C27.001 5.16301 27.1566 4.78219 27.1566 4.38673C27.1566 3.99127 27.001 3.61045 26.7322 3.33216C26.1805 2.76094 25.2327 2.76094 24.681 3.33216L19.2771 8.92721C18.9235 9.29338 18.4001 9.43986 17.9191 9.30804L5.8806 6.02717L4.02746 7.9459L14.0006 11.3879C14.4674 11.549 14.8211 11.9445 14.9342 12.4425C15.0474 12.9405 14.9059 13.4531 14.5523 13.8193L9.82742 18.7113C9.55864 18.9896 9.205 19.136 8.82305 19.136H5.35721L4.46598 20.0588L8.11574 21.9483C8.38452 22.0947 8.61083 22.3145 8.75229 22.6074L10.5772 26.3863L11.4684 25.4635V21.875C11.4684 21.4796 11.624 21.1134 11.8786 20.8351L16.6035 15.9431C16.8723 15.6502 17.2401 15.489 17.6079 15.489Z" fill="#B9B6B6"/>
</svg>
