<svg width="31" height="31" viewBox="0 0 31 31" fill="none" xmlns="http://www.w3.org/2000/svg">
<path d="M15.209 13.9155C19.0459 13.9155 22.167 10.7944 22.167 6.95801C22.167 3.12158 19.0459 0 15.209 0C11.3721 0 8.25098 3.12158 8.25098 6.95801C8.25098 10.7944 11.3721 13.9155 15.209 13.9155ZM15.209 3C17.3916 3 19.167 4.77539 19.167 6.95801C19.167 9.14014 17.3916 10.9155 15.209 10.9155C13.0264 10.9155 11.251 9.14014 11.251 6.95801C11.251 4.77539 13.0264 3 15.209 3ZM22.9678 16.0996H7.4502C3.3418 16.0996 0 19.4419 0 23.5498C0 27.6577 3.3418 31 7.4502 31H22.9678C27.0762 31 30.418 27.6577 30.418 23.5498C30.418 19.4419 27.0762 16.0996 22.9678 16.0996ZM22.9678 28H7.4502C4.9961 28 3 26.0034 3 23.5498C3 21.0962 4.99609 19.0996 7.4502 19.0996H22.9678C25.4219 19.0996 27.418 21.0962 27.418 23.5498C27.418 26.0034 25.4219 28 22.9678 28Z" fill="#B9B6B6"/>
</svg>
